<?xml version="1.0" encoding="UTF-8"?>
<svg id="Layer_1" data-name="Layer 1" xmlns="http://www.w3.org/2000/svg" viewBox="0 0 29.4 29.4">
  <defs>
    <style>
      .cls-1 {
        fill: #f06922;
      }
    </style>
  </defs>
  <path class="cls-1" d="M16.19,24h-3.41l-5.85-13.84c-.36-.9-.7-1.59-1.03-2.05-.32-.47-.68-.78-1.07-.93-.39-.15-.84-.23-1.36-.23v-1.55h10.89v1.55c-.8,0-1.37.1-1.71.29-.34.19-.5.46-.5.79,0,.23.04.48.12.76.08.27.17.54.27.79l2.79,6.78.85,2.44h.31l.93-2.52,2.95-6.86c.16-.52.23-.98.23-1.4,0-.44-.17-.73-.5-.87-.34-.14-.88-.21-1.63-.21v-1.55h7.44v1.55c-.78,0-1.38.19-1.82.58-.44.39-.9,1.12-1.4,2.21l-6.51,14.26Z"/>
</svg>