<?xml version="1.0" encoding="UTF-8"?>
<svg id="Layer_2" data-name="Layer 2" xmlns="http://www.w3.org/2000/svg" viewBox="0 0 208.44 65.17">
  <defs>
    <style>
      .cls-1 {
        fill: #f06a22;
      }
    </style>
  </defs>
  <g id="Layer_1-2" data-name="Layer 1">
    <g>
      <path class="cls-1" d="M0,0h9.58v29.38h1.44c4.32,0,6.34-1.15,8.21-5.11l3.1-6.62h10.01l-3.1,6.55c-2.02,4.18-3.82,7.2-5.83,9.36l10.87,17.21h-11.02l-7.78-13.03c-1.37.22-2.81.36-4.46.36h-1.44v12.67H0V0Z"/>
      <path class="cls-1" d="M30.89,34.2c0-9.79,6.48-17.28,15.48-17.28,4.18,0,7.56,1.94,9.94,5.18l1.08-4.46h8.35v33.12h-8.35l-1.15-4.54c-2.3,3.31-5.69,5.26-9.87,5.26-8.93,0-15.48-7.49-15.48-17.28ZM56.67,34.2c0-4.97-3.53-8.71-8.21-8.71s-8.21,3.74-8.21,8.71,3.53,8.71,8.21,8.71,8.21-3.74,8.21-8.71Z"/>
      <path class="cls-1" d="M68.4,65.17V17.64h8.35l1.01,4.1c2.38-3.02,5.83-4.82,10.01-4.82,8.93,0,15.48,7.42,15.48,17.28s-6.48,17.28-15.48,17.28c-4.03,0-7.42-1.73-9.79-4.61v18.29h-9.58ZM77.47,34.2c0,4.97,3.53,8.71,8.21,8.71s8.21-3.74,8.21-8.71-3.53-8.71-8.21-8.71-8.21,3.74-8.21,8.71Z"/>
      <path class="cls-1" d="M122.62,42.77c1.44,0,2.95-.65,4.46-1.87l4.61,6.77c-2.88,2.38-6.62,3.82-10.3,3.82-7.99,0-12.67-5.11-12.67-13.75v-11.88h-6.62v-7.85l6.62-.36h.5l1.22-9.43h7.92v9.43h10.66v8.21h-10.66v11.67c0,3.24,1.58,5.26,4.25,5.26Z"/>
      <path class="cls-1" d="M131.54,7.2c0-3.17,2.59-5.69,5.76-5.69s5.76,2.52,5.76,5.69-2.59,5.76-5.76,5.76-5.76-2.59-5.76-5.76ZM142.13,50.76h-9.58V17.64h9.58v33.12Z"/>
      <path class="cls-1" d="M164.23,50.76h-9.65l-13.03-33.12h10.22l7.85,22.18,7.99-22.18h9.58l-12.96,33.12Z"/>
      <path class="cls-1" d="M208.44,34.06c0,1.08-.07,2.23-.29,2.95h-24.77c1.01,4.32,4.46,6.91,9.22,6.91,3.17,0,5.9-.94,8.21-3.38l5.4,5.62c-3.53,3.53-8.21,5.33-13.32,5.33-10.73,0-18.22-7.42-18.22-17.28s7.42-17.28,17.21-17.28,16.56,7.34,16.56,17.14ZM183.46,31.04h16.34c-.86-4.03-3.67-6.7-8.21-6.7-4.03,0-7.13,2.59-8.14,6.7Z"/>
    </g>
  </g>
</svg>